<svg width="43" height="44" viewBox="0 0 43 44" fill="none" xmlns="http://www.w3.org/2000/svg">
<path d="M39.514 4.01461C40.1908 4.70785 40.7014 5.54646 41.0072 6.46692C41.313 7.38738 41.4059 8.36555 41.2788 9.32734C41.1518 10.2891 40.8082 11.2093 40.2741 12.0182C39.74 12.8271 39.0293 13.5035 38.1959 13.9962C32.188 17.5385 25.1774 18.9799 18.2643 18.0943C11.3512 17.2087 4.92703 14.0462 0 9.10303L8.89243 0C11.8369 2.95212 15.6716 4.84561 19.8001 5.38592C23.9286 5.92622 28.1195 5.08305 31.7207 2.98757C32.9466 2.26314 34.3785 1.96978 35.7895 2.15398C37.2005 2.33818 38.5098 2.98941 39.51 4.00444L39.514 4.01461Z" fill="#9C5AFF"/>
<path d="M39.4754 3.97406C38.2836 2.77947 36.6676 2.1084 34.9826 2.1084C33.2976 2.1084 31.6815 2.77947 30.4897 3.97406L3.5184 31.0228C2.32723 32.218 1.65808 33.8387 1.65808 35.5286C1.65808 37.2184 2.32723 38.8391 3.5184 40.0343C4.10825 40.6263 4.80864 41.0959 5.57955 41.4163C6.35046 41.7368 7.17677 41.9017 8.01126 41.9017C8.84575 41.9017 9.67206 41.7368 10.443 41.4163C11.2139 41.0959 11.9143 40.6263 12.5041 40.0343L39.4754 12.9856C40.0657 12.394 40.534 11.6916 40.8535 10.9185C41.173 10.1454 41.3374 9.3167 41.3374 8.47981C41.3374 7.64293 41.173 6.81425 40.8535 6.04113C40.534 5.268 40.0657 4.5656 39.4754 3.97406Z" fill="url(#paint0_linear_57_2787)"/>
<path d="M3.48602 39.9833C2.80915 39.2904 2.29841 38.4521 1.99248 37.5319C1.68656 36.6117 1.59349 35.6337 1.72031 34.6721C1.84713 33.7104 2.19053 32.7904 2.72447 31.9815C3.25842 31.1727 3.96892 30.4964 4.80214 30.0038C10.8104 26.4621 17.821 25.0208 24.7341 25.906C31.6473 26.7913 38.0719 29.9529 43 34.8949L34.1035 44C31.1591 41.0479 27.3244 39.1544 23.1959 38.6141C19.0673 38.0738 14.8765 38.9169 11.2753 41.0124C10.048 41.735 8.61534 42.0261 7.20438 41.8397C5.79343 41.6533 4.48485 41 3.48602 39.9833Z" fill="url(#paint1_linear_57_2787)"/>
<defs>
<linearGradient id="paint0_linear_57_2787" x1="40.9274" y1="5.97323" x2="13.3287" y2="28.6104" gradientUnits="userSpaceOnUse">
<stop stop-color="#22BFFF"/>
<stop offset="0.15" stop-color="#22BFFF" stop-opacity="0.84"/>
<stop offset="0.57" stop-color="#22BFFF" stop-opacity="0.39"/>
<stop offset="0.87" stop-color="#22BFFF" stop-opacity="0.11"/>
<stop offset="1" stop-color="#22BFFF" stop-opacity="0"/>
</linearGradient>
<linearGradient id="paint1_linear_57_2787" x1="2.17598" y1="35.0108" x2="42.7364" y2="34.7156" gradientUnits="userSpaceOnUse">
<stop stop-color="#FFC99E"/>
<stop offset="0.67" stop-color="#FF87A4"/>
<stop offset="1" stop-color="#FF6BA6"/>
</linearGradient>
</defs>
</svg>
